<?xml version="1.0" encoding="utf-8"?>
<!-- Generator: Adobe Illustrator 24.0.1, SVG Export Plug-In . SVG Version: 6.00 Build 0)  -->
<svg version="1.1" id="Warstwa_1" xmlns="http://www.w3.org/2000/svg" xmlns:xlink="http://www.w3.org/1999/xlink" x="0px" y="0px"
	 viewBox="0 0 437 176" style="enable-background:new 0 0 437 176;" xml:space="preserve">
<style type="text/css">
	.st0{fill:#1E76B6;}
	.st1{fill:#FFFFFF;}
</style>
<path d="M103.6,36.89c0,2.72-0.88,4.88-2.64,6.48c-1.76,1.6-3.84,2.4-6.24,2.4c-2.48,0-4.6-0.8-6.36-2.4
	c-1.76-1.6-2.64-3.76-2.64-6.48c0-2.8,0.88-5,2.64-6.6c1.76-1.6,3.88-2.4,6.36-2.4c2.4,0,4.48,0.8,6.24,2.4
	C102.72,31.89,103.6,34.09,103.6,36.89z M101.92,118.01H87.4V55.25h14.52V118.01z"/>
<path d="M133.24,107.57c3.84,0,6.64-0.46,8.4-1.38c1.76-0.92,2.64-2.5,2.64-4.74c0-2.08-0.94-3.8-2.82-5.16
	c-1.88-1.36-4.98-2.84-9.3-4.44c-2.64-0.96-5.06-1.98-7.26-3.06c-2.2-1.08-4.1-2.34-5.7-3.78c-1.6-1.44-2.86-3.18-3.78-5.22
	c-0.92-2.04-1.38-4.54-1.38-7.5c0-5.76,2.12-10.3,6.36-13.62c4.24-3.32,10-4.98,17.28-4.98c3.68,0,7.2,0.34,10.56,1.02
	c3.36,0.68,5.88,1.34,7.56,1.98l-2.64,11.76c-1.6-0.72-3.64-1.38-6.12-1.98c-2.48-0.6-5.36-0.9-8.64-0.9c-2.96,0-5.36,0.5-7.2,1.5
	c-1.84,1-2.76,2.54-2.76,4.62c0,1.04,0.18,1.96,0.54,2.76c0.36,0.8,0.98,1.54,1.86,2.22c0.88,0.68,2.04,1.36,3.48,2.04
	c1.44,0.68,3.2,1.38,5.28,2.1c3.44,1.28,6.36,2.54,8.76,3.78c2.4,1.24,4.38,2.64,5.94,4.2c1.56,1.56,2.7,3.34,3.42,5.34
	c0.72,2,1.08,4.4,1.08,7.2c0,6-2.22,10.54-6.66,13.62c-4.44,3.08-10.78,4.62-19.02,4.62c-5.52,0-9.96-0.46-13.32-1.38
	c-3.36-0.92-5.72-1.66-7.08-2.22l2.52-12.12c2.16,0.88,4.74,1.72,7.74,2.52C125.98,107.17,129.4,107.57,133.24,107.57z"/>
<path d="M168.36,118.01V27.29l14.52-2.4v31.08c1.6-0.56,3.46-1.04,5.58-1.44c2.12-0.4,4.22-0.6,6.3-0.6c5.04,0,9.22,0.7,12.54,2.1
	c3.32,1.4,5.98,3.36,7.98,5.88c2,2.52,3.42,5.54,4.26,9.06c0.84,3.52,1.26,7.44,1.26,11.76v35.28h-14.52v-33
	c0-3.36-0.22-6.22-0.66-8.58c-0.44-2.36-1.16-4.28-2.16-5.76c-1-1.48-2.34-2.56-4.02-3.24c-1.68-0.68-3.76-1.02-6.24-1.02
	c-1.92,0-3.88,0.2-5.88,0.6c-2,0.4-3.48,0.76-4.44,1.08v49.92H168.36z"/>
<path d="M251.91,107.57c3.84,0,6.64-0.46,8.4-1.38c1.76-0.92,2.64-2.5,2.64-4.74c0-2.08-0.94-3.8-2.82-5.16
	c-1.88-1.36-4.98-2.84-9.3-4.44c-2.64-0.96-5.06-1.98-7.26-3.06c-2.2-1.08-4.1-2.34-5.7-3.78c-1.6-1.44-2.86-3.18-3.78-5.22
	c-0.92-2.04-1.38-4.54-1.38-7.5c0-5.76,2.12-10.3,6.36-13.62c4.24-3.32,10-4.98,17.28-4.98c3.68,0,7.2,0.34,10.56,1.02
	c3.36,0.68,5.88,1.34,7.56,1.98l-2.64,11.76c-1.6-0.72-3.64-1.38-6.12-1.98c-2.48-0.6-5.36-0.9-8.64-0.9c-2.96,0-5.36,0.5-7.2,1.5
	c-1.84,1-2.76,2.54-2.76,4.62c0,1.04,0.18,1.96,0.54,2.76c0.36,0.8,0.98,1.54,1.86,2.22c0.88,0.68,2.04,1.36,3.48,2.04
	c1.44,0.68,3.2,1.38,5.28,2.1c3.44,1.28,6.36,2.54,8.76,3.78c2.4,1.24,4.38,2.64,5.94,4.2c1.56,1.56,2.7,3.34,3.42,5.34
	c0.72,2,1.08,4.4,1.08,7.2c0,6-2.22,10.54-6.66,13.62c-4.44,3.08-10.78,4.62-19.02,4.62c-5.52,0-9.96-0.46-13.32-1.38
	c-3.36-0.92-5.72-1.66-7.08-2.22l2.52-12.12c2.16,0.88,4.74,1.72,7.74,2.52C244.65,107.17,248.07,107.57,251.91,107.57z"/>
<path d="M287.31,38.69l14.52-2.4v18.96h14.32v12.12h-14.32v25.56c0,5.04,0.8,8.64,2.4,10.8c1.6,2.16,4.32,3.24,8.16,3.24
	c2.64,0,4.98-0.28,7.02-0.84c2.04-0.56,3.66-1.08,4.86-1.56l2.4,11.52c-1.68,0.72-3.88,1.46-6.6,2.22c-2.72,0.76-5.92,1.14-9.6,1.14
	c-4.48,0-8.22-0.6-11.22-1.8c-3-1.2-5.38-2.94-7.14-5.22c-1.76-2.28-3-5.04-3.72-8.28c-0.72-3.24-1.08-6.94-1.08-11.1V38.69z"/>
<path d="M331.63,86.93c0-5.52,0.82-10.36,2.46-14.52c1.64-4.16,3.82-7.62,6.54-10.38c2.72-2.76,5.84-4.84,9.36-6.24
	c3.52-1.4,7.12-2.1,10.8-2.1c8.64,0,15.38,2.68,20.22,8.04c4.84,5.36,7.26,13.36,7.26,24c0,0.8-0.02,1.7-0.06,2.7
	c-0.04,1-0.1,1.9-0.18,2.7h-41.4c0.4,5.04,2.18,8.94,5.34,11.7c3.16,2.76,7.74,4.14,13.74,4.14c3.52,0,6.74-0.32,9.66-0.96
	c2.92-0.64,5.22-1.32,6.9-2.04l1.92,11.88c-0.8,0.4-1.9,0.82-3.3,1.26c-1.4,0.44-3,0.84-4.8,1.2c-1.8,0.36-3.74,0.66-5.82,0.9
	c-2.08,0.24-4.2,0.36-6.36,0.36c-5.52,0-10.32-0.82-14.4-2.46s-7.44-3.92-10.08-6.84c-2.64-2.92-4.6-6.36-5.88-10.32
	C332.27,95.99,331.63,91.65,331.63,86.93z M373.75,80.45c0-2-0.28-3.9-0.84-5.7c-0.56-1.8-1.38-3.36-2.46-4.68
	c-1.08-1.32-2.4-2.36-3.96-3.12c-1.56-0.76-3.42-1.14-5.58-1.14c-2.24,0-4.2,0.42-5.88,1.26s-3.1,1.94-4.26,3.3
	c-1.16,1.36-2.06,2.92-2.7,4.68c-0.64,1.76-1.08,3.56-1.32,5.4H373.75z"/>
<path d="M434.39,68.33c-1.2-0.4-2.86-0.82-4.98-1.26c-2.12-0.44-4.58-0.66-7.38-0.66c-1.6,0-3.3,0.16-5.1,0.48
	c-1.8,0.32-3.06,0.6-3.78,0.84v50.28h-14.52V58.25c2.8-1.04,6.3-2.02,10.5-2.94c4.2-0.92,8.86-1.38,13.98-1.38
	c0.96,0,2.08,0.06,3.36,0.18c1.28,0.12,2.56,0.28,3.84,0.48c1.28,0.2,2.52,0.44,3.72,0.72c1.2,0.28,2.16,0.54,2.88,0.78
	L434.39,68.33z"/>
<path d="M55.25,67.44h18.6V55.3h-18.6V30.4c0-2.33,0.23-4.5,0.7-6.51c0.47-2.01,1.26-3.71,2.38-5.11c1.12-1.4,2.61-2.5,4.48-3.29
	c1.87-0.79,4.15-1.19,6.86-1.19c2.43,0,4.69,0.23,6.79,0.7c2.1,0.47,3.94,1.07,5.53,1.82l3.22-14c-1.49-0.56-3.73-1.19-6.72-1.89
	c-2.99-0.7-6.44-1.05-10.36-1.05c-9.99,0-17.45,2.68-22.4,8.05c-4.95,5.37-7.42,12.76-7.42,22.19v110.86h0
	c0,10.12-1.13,18.35-11.55,18.35s-10.76-8.23-10.76-18.35v-3.77L0.25,116.4v24.58c0,19.62,8.58,32.59,26.5,32.59
	c17.45,0,27.72-12.29,28.46-31.05L55.25,67.44z"/>
<g>
	<path d="M92.81,143.56c3.86,0.02,5.82,1.47,5.89,4.35c-0.02,2.44-0.84,4.3-2.46,5.58c2.49,0.74,3.74,2.36,3.75,4.85
		c-0.07,1.01-0.28,1.91-0.65,2.71c-1.23,2.66-4.1,3.99-8.62,3.99c-0.55,0-1.37-0.03-2.46-0.1c-0.22,0-0.42-0.06-0.6-0.18
		c-0.35-0.25-0.53-0.64-0.53-1.14l2.44-18.83c0.01-0.16,0.04-0.31,0.11-0.45c0.19-0.41,0.52-0.62,0.98-0.62
		C91.41,143.61,92.13,143.56,92.81,143.56z M90.48,155.08l-1.03,7.83c0.52,0.04,0.92,0.05,1.22,0.05c1.43,0,2.68-0.17,3.76-0.51
		c2.23-0.72,3.35-2.08,3.35-4.08c-0.01-1.37-0.9-2.3-2.68-2.81C94.14,155.31,92.6,155.15,90.48,155.08z M91.7,145.61l-0.95,7.22
		c0.3,0,0.58-0.01,0.83-0.03c3.33-0.18,4.99-1.81,4.99-4.88c-0.01-0.75-0.31-1.33-0.9-1.73c-0.65-0.41-1.75-0.62-3.32-0.62
		C92.14,145.57,91.92,145.58,91.7,145.61z"/>
	<path d="M103.4,153.22c0.57,0.01,0.87,0.37,0.89,1.07c0,0.14-0.04,0.44-0.11,0.89c-0.3,2.04-0.45,3.52-0.45,4.44
		c0,1.98,0.49,2.98,1.47,3c0.21-0.02,0.42-0.09,0.62-0.22c0.83-0.55,1.45-2.33,1.87-5.32c0.19-0.76,0.3-1.6,0.35-2.53
		c0.01-0.09,0.01-0.19,0.01-0.31c0.01-0.02,0.02-0.03,0.03-0.04c0.11-0.61,0.45-0.92,1.03-0.92c0.11,0,0.22,0.02,0.33,0.05
		c0.41,0.15,0.62,0.54,0.62,1.18c0,0.07,0,0.17-0.01,0.3c0,0.08,0,0.13,0,0.15l-1.4,10.08c2.2-1.65,3.5-2.65,3.89-2.99
		c0.36-0.26,0.71-0.39,1.05-0.39c0.12,0,0.24,0.04,0.37,0.11c0.26,0.17,0.4,0.4,0.4,0.68c-0.01,0.42-0.26,0.83-0.75,1.24
		c-0.92,0.78-2.7,2.18-5.33,4.19l-0.62,4.5c-0.16,1.08-0.65,1.89-1.48,2.45c-0.58,0.38-1.18,0.57-1.79,0.57
		c-0.84,0-1.58-0.31-2.23-0.94c-0.63-0.63-0.94-1.33-0.94-2.12c0-0.83,0.21-1.5,0.62-2.02c0.21-0.26,0.63-0.63,1.27-1.11
		c0.08-0.09,1.18-0.91,3.29-2.47c0.09-0.83,0.19-1.63,0.29-2.41c-0.52,0.25-1.12,0.38-1.8,0.38c-0.32,0-0.63-0.04-0.92-0.12
		c-1.57-0.48-2.36-2.24-2.36-5.26c0.01-1.5,0.17-2.97,0.48-4.39C102.32,153.87,102.77,153.29,103.4,153.22z M105.7,171.34l0.23-1.67
		c-0.94,0.7-1.44,1.09-1.51,1.15c-0.66,0.52-0.99,1-1,1.43c0,0.16,0.03,0.31,0.08,0.46c0.15,0.41,0.44,0.62,0.87,0.62
		c0.16,0,0.31-0.03,0.44-0.08C105.27,173.06,105.57,172.42,105.7,171.34z"/>
</g>
<g>
	<rect x="121.43" y="131.49" class="st0" width="168.87" height="42.23"/>
	<path class="st0" d="M140.35,146.31h-2.2v12.72h2.23c4.22,0,6.22-1.95,6.22-6.39C146.6,148.58,144.42,146.31,140.35,146.31"/>
	<path class="st1" d="M140.38,159.02h-2.23v-12.72h2.2c4.07,0,6.25,2.27,6.25,6.33C146.6,157.07,144.6,159.02,140.38,159.02
		 M151.95,150.63c-0.38-2.67-1.44-4.87-3.15-6.46c-2.36-2.21-4.86-2.68-8.44-2.68h-7.73v22.45h8.49c3.18,0,5.29-0.43,7.71-2.77
		c1.72-1.67,2.75-3.78,3.12-6.28v8.93h12.3v-4.83h-6.87v-4.17h5.95v-4.82h-5.95v-3.66h6.87v-4.95h-12.3V150.63z"/>
	<path class="st1" d="M189.61,155.85h-2.85l2.85-5.07V155.85z M180.95,155.73c-0.17,0.3-1.79,2.78-5.06,3.01
		c-3.25,0.15-6.01-2.94-5.96-6.27c0.1-3.3,2.56-5.94,5.83-5.99c2.77,0.05,4.82,2.2,4.78,2.2c0.6,0.52,0.99,0.9,1.44,1.57l2.96-5.22
		c-0.54-0.55-0.76-0.81-1.42-1.3c-1.69-1.53-4.15-2.74-7.63-2.86c-3.34-0.08-6.71,1.33-9.33,4.7c-1.6,2.14-2.24,4.06-2.32,6.9
		c0.03,3.33,1.22,6.02,2.97,7.96c2.99,3.16,6.61,3.91,8.54,3.91c2.77-0.12,4.8-0.79,6.72-2.08c0.61-0.42,1.28-0.98,1.95-1.7h5.18
		v3.27h5.3v-22.44h-5.81L180.95,155.73z"/>
	<polygon class="st1" points="195.97,146.7 200.15,146.7 200.15,163.94 205.69,163.94 205.69,146.7 209.97,146.7 209.97,141.49 
		195.97,141.49 	"/>
	<polygon class="st1" points="222.13,150.02 216.47,150.02 216.47,141.49 210.95,141.49 210.95,163.94 216.47,163.94 216.47,155.36 
		222.13,155.36 222.13,163.94 227.7,163.94 227.7,141.49 222.13,141.49 	"/>
	<path class="st1" d="M249.26,158.8c-3.13,0-5.94-2.73-5.94-6.26c0-3.3,2.63-5.91,6.01-5.91c3.18,0,5.81,2.62,5.81,5.91
		C255.14,156.2,252.51,158.8,249.26,158.8 M273.58,153.97l-8.29-12.48h-4.99v7.58c-0.56-1.72-1.55-3.31-2.93-4.69
		c-2.21-2.14-5.06-3.31-8.07-3.31c-3.22,0-6.01,1.11-8.23,3.29c-2.23,2.18-3.44,5.02-3.44,8.12c0,2.47,0.61,4.63,1.79,6.51h-4.23
		v-17.51h-5.5v22.45h11.96v-2.36c2.08,1.84,4.66,2.78,7.62,2.78c3.14,0,6.13-1.23,8.33-3.51c1.26-1.3,2.18-2.84,2.71-4.56v7.65h5.52
		v-12.51l8.43,12.51h4.85v-22.45h-5.52V153.97z"/>
</g>
</svg>
